<svg id="Layer_1" data-name="Layer 1" xmlns="http://www.w3.org/2000/svg" viewBox="0 0 128 108"><defs><style>.cls-1{fill:#fff;}</style></defs><title>logo-fhg1</title><rect x="0" y="-1.5" width="128.38" height="110.3"/><path class="cls-1" d="M65,30.94l-1.81,0-.78,0-.81,0-1.35,0c-.4,0-.47-.17-.47-.27s.14-.28.38-.28a2.31,2.31,0,0,0,.56-.05c.25-.06.34-.24.41-.74.07-.67.07-1.9.07-3.34v-1.2l-6.16,0v1.18c0,1.76,0,2.75.08,3.35s.15.66.55.73a6.4,6.4,0,0,0,.82.05c.23,0,.36.14.36.28s0,.27-.44.27l-1.84,0-.82,0-.77,0-1.32,0c-.38,0-.44-.17-.44-.27s.11-.28.37-.28a2.22,2.22,0,0,0,.54-.05c.24-.06.35-.24.4-.74.08-.67.08-1.91.08-3.37V23.45c0-2.4,0-2.85,0-3.35s-.15-.62-.64-.75a2.43,2.43,0,0,0-.61-.06c-.29,0-.39-.13-.39-.28s.33-.26.46-.26l1.56,0,.84,0,.83,0,1.35,0c.1,0,.44,0,.44.26s-.07.28-.4.28a2.09,2.09,0,0,0-.44.06c-.39.07-.51.23-.54.76s0,1.07,0,3.48v.32h6.18l0-.34c0-2.31,0-2.92,0-3.49s-.13-.62-.62-.75a2.49,2.49,0,0,0-.61-.06c-.35,0-.38-.18-.38-.28,0-.26.32-.26.46-.26l1.63,0,.82,0,.82,0,1.3,0c.13,0,.45,0,.45.26,0,.07,0,.28-.4.28a2.39,2.39,0,0,0-.47.06c-.36.07-.48.23-.5.76s0,.94,0,3.34v2.78c0,1.45,0,2.7.07,3.38.07.46.17.66.58.73a6.1,6.1,0,0,0,.82.05c.23,0,.38.14.38.28s-.05.27-.45.27"/><path class="cls-1" d="M53.06,70.79l-1.81,0-.78,0-.81,0-1.35,0c-.4,0-.47-.17-.47-.27s.14-.28.38-.28a2.31,2.31,0,0,0,.56-.05c.25-.06.34-.24.41-.74.07-.67.07-1.9.07-3.34v-1.2l-6.16,0v1.18c0,1.76,0,2.75.08,3.35s.15.66.55.73a6.4,6.4,0,0,0,.82.05c.23,0,.36.14.36.28s0,.27-.44.27l-1.84,0-.82,0-.77,0-1.32,0c-.38,0-.44-.17-.44-.27s.11-.28.37-.28a2.22,2.22,0,0,0,.54-.05c.24-.06.35-.24.4-.74.08-.67.08-1.91.08-3.37V63.3c0-2.4,0-2.85,0-3.35s-.15-.62-.64-.75a2.43,2.43,0,0,0-.61-.06c-.29,0-.39-.13-.39-.28s.33-.26.46-.26l1.56,0,.84,0,.83,0,1.35,0c.1,0,.44,0,.44.26s-.07.28-.4.28a2.09,2.09,0,0,0-.44.06c-.39.07-.51.23-.54.76s0,1.07,0,3.48v.32h6.18l0-.34c0-2.31,0-2.92,0-3.49s-.13-.62-.62-.75a2.49,2.49,0,0,0-.61-.06c-.35,0-.38-.18-.38-.28,0-.26.32-.26.46-.26l1.63,0,.82,0,.82,0,1.3,0c.13,0,.45,0,.45.26,0,.07,0,.28-.4.28a2.39,2.39,0,0,0-.47.06c-.36.07-.48.23-.5.76s0,.94,0,3.34v2.78c0,1.45,0,2.7.07,3.38.07.46.17.66.58.73a6.1,6.1,0,0,0,.82.05c.23,0,.38.14.38.28s-.05.27-.45.27"/><path class="cls-1" d="M74.86,31c-1.21,0-2.2,0-3,0l-.52,0-1.37,0h-.3l-.64,0-1.14,0c-.36,0-.42-.17-.42-.27s.11-.28.38-.28a2.19,2.19,0,0,0,.54-.05c.25-.05.35-.24.42-.74.07-.67.07-1.91.07-3.37V23.45c0-2.41,0-2.85,0-3.35s-.14-.62-.63-.75a2.47,2.47,0,0,0-.61-.06c-.29,0-.39-.13-.39-.28s.34-.26.48-.26l1.52,0,.85,0h4.45c.21,0,.42-.06.56-.08l.13,0,.1,0a.61.61,0,0,1,.17,0c.06,0,.22,0,.22.26a.69.69,0,0,1,0,.17,5.36,5.36,0,0,0-.1.86c0,.06,0,.18,0,.32a6.81,6.81,0,0,1-.06.74c0,.1-.08.35-.3.35s-.23-.24-.23-.32a1.32,1.32,0,0,0-.1-.52c-.11-.24-.21-.45-1-.51-.27,0-2.21-.08-2.57-.08v3.94c0,.06,0,.07,0,.07,1.57,0,2.62,0,2.85,0,.39,0,.6-.08.71-.2a.42.42,0,0,0,.11-.11.38.38,0,0,1,.22-.13.26.26,0,0,1,.25.27c0,.07,0,.18-.05.52l-.08.63c0,.32-.07.95-.07,1.06,0,.41-.17.46-.29.46a.23.23,0,0,1-.25-.24s0-.11,0-.18a1.58,1.58,0,0,0,0-.37c-.08-.23-.22-.47-.81-.52-.28,0-2.09-.07-2.55-.07v2c0,.61,0,1.37,0,1.7,0,1,.45,1.21,2.11,1.21a4.63,4.63,0,0,0,1.5-.19c.36-.17.53-.46.64-1.09,0-.13.08-.33.3-.33s.26.36.26.47a11.32,11.32,0,0,1-.24,1.78c-.13.49-.37.49-1,.49"/><path class="cls-1" d="M44.48,50.85c-.72,0-1,0-1.57,0h-.82l-1,0-1.4,0c-.16,0-.49,0-.49-.29,0-.11.07-.25.39-.25a2.59,2.59,0,0,0,.64-.08c.29-.05.38-.35.45-.93a7.08,7.08,0,0,0,.1-1.93V44.09c0-2.83,0-3.34,0-3.94s-.19-.85-.71-1a3.94,3.94,0,0,0-.71-.05c-.35,0-.43-.14-.43-.26,0-.29.37-.29.54-.29l.77,0h1l1,0c1.67,0,4.18,0,4.54,0h.18a1.9,1.9,0,0,0,.55-.07.21.21,0,0,0,.1-.05.86.86,0,0,1,.23-.05.25.25,0,0,1,.24.27c0,.06,0,.14,0,.25a5.18,5.18,0,0,0-.1.6c0,.08,0,.27,0,.5a8.91,8.91,0,0,1-.07,1c0,.09,0,.36-.28.36s-.28-.26-.3-.41a1.87,1.87,0,0,0-.11-.67c-.11-.23-.46-.48-1.13-.49l-2.66-.05s-.05,0-.05.15v3.88l2.19,0c.32,0,.58,0,.83,0a.92.92,0,0,0,.73-.29l0,0c.08-.1.14-.18.29-.18s.21,0,.21.28a2.88,2.88,0,0,1,0,.32c0,.22-.08.5-.12.83s-.06,1.21-.06,1.36,0,.45-.29.45c-.13,0-.27-.09-.27-.36a1.66,1.66,0,0,0-.11-.55,1,1,0,0,0-.84-.59C45.34,45,43.91,45,43.22,45h0a.12.12,0,0,0,0,.07v1.5a18.42,18.42,0,0,0,.09,2.76c.06.57.33.87.79.93a1.83,1.83,0,0,0,.49.08c.11,0,.42,0,.42.25s-.39.29-.52.29"/><path class="cls-1" d="M56.27,51c-4.68,0-6.82-3.27-6.82-6.31s2.19-6.3,7-6.3c4.21,0,6.8,2.31,6.8,6,0,3.88-2.87,6.59-7,6.59m-.33-11.55c-1.43,0-3.85.61-3.85,4.75,0,3.37,2,5.72,4.85,5.72,1.1,0,3.65-.48,3.65-4.94,0-3.27-1.92-5.54-4.65-5.54"/><path class="cls-1" d="M84.49,50.83c-1.22,0-2.21,0-3-.05H81l-2.38,0h-.93l-.63,0H75.3a3.7,3.7,0,0,1-1.83-.32,7.36,7.36,0,0,1-2.27-2.36c-.36-.47-.73-1-1-1.45s-.41-.6-.51-.7a.29.29,0,0,0-.21-.08l-1.48,0,0,.25c0,1.18,0,2.62.1,3.35,0,.47.11.68.55.75a7.67,7.67,0,0,0,.78.06.31.31,0,0,1,.32.27c0,.08,0,.27-.46.27-.63,0-1.45,0-2,0H66c-.42,0-.94,0-1.34,0s-.44-.17-.44-.27.11-.27.38-.27a2.32,2.32,0,0,0,.54-.06c.24-.06.35-.25.41-.75.06-.66.06-1.91.06-3.35V43.3c0-2.41,0-2.84,0-3.34s-.15-.62-.62-.76a2.89,2.89,0,0,0-.62-.07c-.29,0-.39-.11-.39-.26s.34-.26.48-.26c.53,0,1.13,0,1.58,0h2l1.21,0a5.86,5.86,0,0,1,3.16.69,2.86,2.86,0,0,1,1.21,2.27c0,1.19-.67,2.24-2.23,3.51l.16.18c1.35,1.67,2.43,3,3.36,3.93a3,3,0,0,0,1.64,1h.06l.14,0,.26,0c.23-.06,1.33-.25,1.39-.75.07-.66.07-1.91.07-3.35V40c0-.49-.15-.62-.64-.76a2.7,2.7,0,0,0-.62-.07c-.28,0-.39-.11-.39-.26s.34-.26.48-.26l1.54,0h5.29c.22,0,.4-.05.56-.07l.11,0,.12,0a.3.3,0,0,1,.17,0c.06,0,.21,0,.21.26a.48.48,0,0,1,0,.16,4.81,4.81,0,0,0-.1.86c0,.06,0,.17,0,.31a4.53,4.53,0,0,1-.08.74c0,.11-.07.35-.29.35s-.23-.24-.23-.31a1.7,1.7,0,0,0-.1-.54c-.11-.23-.22-.44-1-.52-.28,0-2.22-.07-2.57-.07v4c1.58,0,2.62,0,2.86-.05.4,0,.6-.07.72-.2l.12-.11a.3.3,0,0,1,.21-.13.24.24,0,0,1,.24.27,4.39,4.39,0,0,1,0,.52l-.08.66c0,.3-.08.94-.08,1,0,.41-.18.47-.27.47a.24.24,0,0,1-.26-.24,1.34,1.34,0,0,1,0-.19c0-.12,0-.25,0-.37S84,45,83.44,44.9c-.29,0-2.1-.07-2.54-.07v2c0,.61,0,1.37,0,1.69,0,1,.44,1.22,2.1,1.22a4.54,4.54,0,0,0,1.5-.19c.36-.17.53-.46.65-1.08,0-.15.07-.35.29-.35s.25.37.25.5a10.12,10.12,0,0,1-.22,1.77c-.12.49-.36.49-1,.49M69,39.65a5.11,5.11,0,0,0-1,.06s-.06,0-.06.11v4.71c0,.13,0,.15.1.19a4.39,4.39,0,0,0,1.19.14,1.56,1.56,0,0,0,1.09-.24,2.57,2.57,0,0,0,1-2.26A2.39,2.39,0,0,0,69,39.65"/><path class="cls-1" d="M91.15,51a7.1,7.1,0,0,1-2.72-.42c-.3-.13-.37-.25-.37-.65,0-.8.07-1.71.08-2.05v-.05c0-.37.18-.52.32-.52s.27.05.27.37a2.33,2.33,0,0,0,.16.78c.4,1.39,2,1.49,2.49,1.49a2,2,0,0,0,2.15-1.89c0-.62-.13-1.29-1.57-2.14L91,45.36c-1.86-1.09-2.64-2.16-2.64-3.69,0-1.9,1.8-3.28,4.25-3.28a9.27,9.27,0,0,1,2.36.27c.07,0,.3.07.3.29,0,.07,0,.16,0,.26,0,.29,0,.76,0,1.65,0,.5-.18.61-.32.61s-.27-.05-.27-.39a1.69,1.69,0,0,0-.4-1,2.08,2.08,0,0,0-1.73-.71c-1.07,0-2.13.55-2.13,1.59,0,.68.27,1.22,1.67,2l.67.37c2,1.12,2.89,2.29,2.89,3.93A3.57,3.57,0,0,1,94,50.34a5,5,0,0,1-2.8.67"/><path class="cls-1" d="M105.38,50.8c-.66,0-1.3,0-1.84,0h-1.6l-1.35,0c-.37,0-.43-.17-.43-.27s.1-.27.38-.27a2.27,2.27,0,0,0,.53-.06c.25-.06.35-.25.4-.75.08-.66.08-1.91.08-3.35V39.81l-2.32.06c-.92,0-1.29.11-1.51.43a1.92,1.92,0,0,0-.25.52c0,.09-.08.28-.3.28s-.25-.12-.25-.37.32-1.83.35-1.95.07-.37.29-.37a.8.8,0,0,1,.24.06,2.43,2.43,0,0,0,.49.13,15.13,15.13,0,0,0,1.61.07h6.64a6.92,6.92,0,0,0,1.1-.07l.32-.06.15,0c.23,0,.23.26.23.44s0,.52,0,.88,0,.83,0,1,0,.37-.25.37-.28-.25-.31-.42v-.17c0-.24-.26-.79-1.84-.82l-2,0V46.1c0,1.17,0,2.61.1,3.37.05.45.14.67.53.73a7.26,7.26,0,0,0,.82.06c.24,0,.37.13.37.27s0,.27-.42.27"/><path class="cls-1" d="M46.46,30.94c-.66,0-1.3,0-1.84,0H43l-1.35,0c-.37,0-.43-.17-.43-.27s.1-.27.38-.27a2.27,2.27,0,0,0,.53-.06c.25-.06.35-.25.4-.75.08-.66.08-1.91.08-3.35V20L40.33,20c-.92,0-1.29.11-1.51.43a1.92,1.92,0,0,0-.25.52c0,.09-.08.28-.3.28s-.25-.12-.25-.37.32-1.83.35-1.95.07-.37.29-.37a.8.8,0,0,1,.24.06,2.43,2.43,0,0,0,.49.13A15.13,15.13,0,0,0,41,18.8h6.64a6.92,6.92,0,0,0,1.1-.07l.32-.06.15,0c.23,0,.23.26.23.44s0,.52,0,.88,0,.83,0,1,0,.37-.25.37-.28-.25-.31-.42V20.8c0-.24-.26-.79-1.84-.82l-2,0v6.29c0,1.17,0,2.61.1,3.37.05.45.14.67.53.73a7.26,7.26,0,0,0,.82.06c.24,0,.37.13.37.27s0,.27-.42.27"/><path class="cls-1" d="M60.63,70.76c-.65,0-1.32,0-1.85,0l-.8,0-.78,0-1.35,0c-.37,0-.42-.17-.42-.28s.1-.28.37-.28a2.29,2.29,0,0,0,.55,0c.26-.06.36-.2.4-.67.08-.64.08-1.93.08-3.43V63.27c0-2.42,0-2.85,0-3.35s-.19-.64-.49-.74a1.7,1.7,0,0,0-.55-.07c-.09,0-.38,0-.38-.3s.37-.23.51-.23h4.29c.29,0,.45.07.45.23s-.28.3-.37.3a2,2,0,0,0-.46.05c-.37.06-.5.23-.53.76s0,.93,0,3.34v2.78c0,1.5,0,2.79.07,3.45.06.41.15.58.57.65a6.68,6.68,0,0,0,.81,0c.25,0,.38.14.38.28s0,.28-.43.28"/><path class="cls-1" d="M70.67,70.8c-1.15,0-2.12,0-2.95-.06H67.4l-1.84,0h-.93l-1.13,0c-.37,0-.44-.18-.44-.28s.1-.28.38-.28a2.26,2.26,0,0,0,.53,0c.24-.06.34-.24.4-.74.08-.66.08-1.91.08-3.36V63.27c0-2.42,0-2.85,0-3.35s-.14-.62-.63-.75a2.21,2.21,0,0,0-.5-.05c-.36,0-.39-.19-.39-.28,0-.25.32-.25.47-.25H68c.13,0,.46,0,.46.25s-.07.28-.41.28a3.13,3.13,0,0,0-.6.05c-.38.06-.51.23-.54.76s0,.93,0,3.35v2.78c0,1.93,0,3,.33,3.24s.86.32,2.11.32c.89,0,1.47,0,1.84-.42a1.8,1.8,0,0,0,.39-.88c0-.12,0-.34.28-.34.1,0,.26.06.26.46a12.12,12.12,0,0,1-.26,1.85c-.13.43-.29.51-1.14.51"/><path class="cls-1" d="M81,70.8c-1.15,0-2.12,0-2.94-.06h-.33l-1.84,0H75c-.4,0-.79,0-1.13,0s-.43-.18-.43-.28.1-.28.38-.28a2.36,2.36,0,0,0,.54,0c.25-.06.35-.24.4-.74.08-.66.08-1.91.08-3.36V63.27c0-2.42,0-2.85,0-3.35s-.14-.62-.64-.75a2.22,2.22,0,0,0-.52-.05c-.35,0-.38-.19-.38-.28,0-.25.33-.25.46-.25h4.61c.14,0,.46,0,.46.25s-.07.28-.4.28a3.07,3.07,0,0,0-.61.05c-.39.06-.51.23-.54.76s0,.93,0,3.35v2.78c0,1.93,0,3,.32,3.24s.87.32,2.11.32c.9,0,1.47,0,1.84-.42a1.86,1.86,0,0,0,.38-.88c0-.1,0-.34.29-.34.1,0,.25.06.25.46a13.09,13.09,0,0,1-.24,1.85c-.15.43-.3.51-1.15.51"/><path class="cls-1" d="M46.48,90.94c-1.48,0-7.86.14-7.86-6.21a6,6,0,0,1,3-5.44,9.21,9.21,0,0,1,4.48-1,13.64,13.64,0,0,1,2.76.3c.29,0,1,.17,1.45.2.26,0,.36.12.36.32s0,.12,0,.22a23.49,23.49,0,0,0-.11,2.84c0,.17,0,.49-.32.49s-.28-.23-.29-.33a2.5,2.5,0,0,0-.6-1.49,4.28,4.28,0,0,0-3.5-1.41,4.88,4.88,0,0,0-3.11,1c-1.21.84-1.61,1.93-1.61,4,0,4.75,2.9,5.18,5.21,5.18a4,4,0,0,0,1.54-.2c.21-.1.29-.27.29-.59V87.24c0-.91,0-.55,0-1.1s-.19-.84-.72-1a3.44,3.44,0,0,0-.7-.05c-.32,0-.38-.14-.38-.25,0-.31.34-.31.49-.31.55,0,1.17,0,1.7,0l1,0c.3,0,.49,0,.87,0s.81,0,1.12,0c.15,0,.47,0,.47.31,0,.06,0,.25-.34.25a2.69,2.69,0,0,0-.49.05c-.43.08-.6.34-.62,1s0,.21,0,1.14v2c0,.52,0,.61-.3.77a8.09,8.09,0,0,1-3.79.85"/><path class="cls-1" d="M64.28,90.68a3.73,3.73,0,0,1-1.84-.33A7.37,7.37,0,0,1,60.17,88c-.36-.47-.73-1-1-1.44s-.42-.61-.51-.71a.26.26,0,0,0-.21-.08l-1.47,0,0,.25c0,1.17,0,2.63.09,3.36.06.47.11.68.53.73a5.33,5.33,0,0,0,.79.06.3.3,0,0,1,.32.28c0,.08,0,.28-.44.28-.63,0-1.45,0-2,0H55c-.43,0-.95,0-1.35,0s-.41-.17-.41-.28.09-.28.36-.28a2.32,2.32,0,0,0,.56-.05c.24,0,.33-.24.4-.74.07-.67.07-1.91.07-3.36v-2.8c0-2.41,0-2.85,0-3.35s-.14-.61-.64-.75a2.74,2.74,0,0,0-.62-.05c-.28,0-.37-.14-.37-.28s.33-.26.47-.26H55c.31,0,.53,0,.67,0l1.33,0h1.21a5.76,5.76,0,0,1,3.16.69,2.83,2.83,0,0,1,1.21,2.27c0,1.19-.68,2.25-2.23,3.5l.16.2c1.36,1.67,2.43,3,3.35,3.91a3,3,0,0,0,1.65,1l0,0a1.8,1.8,0,0,0,.36,0,.3.3,0,0,1,.32.28c0,.28-.32.28-.42.28ZM57.93,79.54a6.11,6.11,0,0,0-1,0s-.06,0-.06.12v4.71c0,.13,0,.15.09.18a4.19,4.19,0,0,0,1.19.14c.66,0,.85-.06,1.1-.24a2.57,2.57,0,0,0,1-2.25,2.38,2.38,0,0,0-2.38-2.69"/><path class="cls-1" d="M72.38,90.88c-4.68,0-6.8-3.26-6.8-6.31s2.18-6.3,7-6.3c4.21,0,6.82,2.31,6.82,6s-2.88,6.58-7,6.58m-.31-11.56c-1.44,0-3.85.63-3.85,4.76,0,3.38,2,5.72,4.84,5.72,1.09,0,3.65-.47,3.65-4.92,0-3.27-1.91-5.56-4.63-5.56"/><path class="cls-1" d="M87.45,90.88a5.58,5.58,0,0,1-3.8-1.1c-1-.89-1.54-2.25-1.54-4.27v-4c0-1,0-1.28,0-1.62,0-.53-.15-.63-.63-.76a2.57,2.57,0,0,0-.59-.05c-.35,0-.4-.19-.4-.28,0-.26.32-.26.45-.26h1.58l.88,0,.87,0h1.25c.14,0,.45,0,.45.26,0,.07,0,.28-.37.28a1.88,1.88,0,0,0-.43,0c-.39.07-.5.23-.55.77s0,.93,0,3.33V85.4c0,2.33.46,3.16,1.21,3.74a3,3,0,0,0,2,.61,3,3,0,0,0,2.12-.81c.86-.8.92-2.08.92-3.77v-2c0-2.32,0-2.83,0-3.3v0c0-.49-.14-.61-.62-.75A2.65,2.65,0,0,0,89.6,79c-.33,0-.38-.19-.38-.28,0-.26.32-.26.46-.26.32,0,.93,0,1.9,0h.53l1.43,0c.13,0,.46,0,.46.26,0,.09,0,.28-.39.28a1.57,1.57,0,0,0-.43.05c-.4.07-.5.21-.53.76v0c0,.47,0,1,0,3.3v1.7c0,1.82-.2,3.69-1.61,4.84a5.21,5.21,0,0,1-3.54,1.15"/><path class="cls-1" d="M100.43,90.68c-.68,0-1.36,0-1.91,0H97l-1.3,0c-.38,0-.42-.17-.42-.28s.08-.28.36-.28a2.4,2.4,0,0,0,.56-.05c.23,0,.34-.24.39-.74.07-.67.07-1.91.07-3.36v-2.8c0-2.41,0-2.85,0-3.35s-.14-.61-.63-.75A2.6,2.6,0,0,0,95.4,79c-.29,0-.4-.14-.4-.28s.35-.26.49-.26H97c.35,0,.64,0,.84,0l1.3,0h1.42a4.31,4.31,0,0,1,3.11.91,2.85,2.85,0,0,1,.88,2,4,4,0,0,1-4.22,3.94,2.75,2.75,0,0,1-.52,0,.28.28,0,0,1-.28-.27c0-.14.1-.32.65-.32a2.39,2.39,0,0,0,2.09-2.46,2.86,2.86,0,0,0-.93-2.27,2.38,2.38,0,0,0-1.57-.56,2.46,2.46,0,0,0-.67.06s-.05,0-.05.2V86c0,1.45,0,2.69.08,3.37.05.46.13.67.53.73a5.52,5.52,0,0,0,.81.06c.25,0,.37.13.37.28s-.17.28-.41.28"/><rect class="cls-1" x="21.39" y="18.41" width="5.86" height="72.79"/></svg>
